<?xml version="1.0" encoding="utf-8"?>
<!-- Generator: Adobe Illustrator 26.4.1, SVG Export Plug-In . SVG Version: 6.00 Build 0)  -->
<svg version="1.1" id="Capa_1" xmlns="http://www.w3.org/2000/svg" xmlns:xlink="http://www.w3.org/1999/xlink" x="0px" y="0px"
	 viewBox="0 0 230 60" style="enable-background:new 0 0 230 60;" xml:space="preserve">
<style type="text/css">
	.st0{fill:#1D1D1B;}
</style>
<g>
	<path class="st0" d="M18.53,44.49c0,1.72,0.32,3.13,0.96,4.21c0.64,1.08,1.55,1.62,2.72,1.62c1.72,0,3.36-1.01,4.92-3.03
		c1.56-2.02,2.81-4.6,3.74-7.75c0.94-3.15,1.4-6.15,1.4-8.99c0-2.84-0.11-5.14-0.33-6.9c1.1-0.07,1.87-0.11,2.31-0.11
		c1.87,0,3.28,0.35,4.23,1.04c0.95,0.7,1.43,1.94,1.43,3.74c0,0.7-0.44,3.53-1.32,8.5c-0.88,4.97-1.32,8.95-1.32,11.94
		s0.57,5.64,1.71,7.95c-2.75-0.48-4.77-1.5-6.05-3.05c-1.28-1.56-1.93-3.8-1.93-6.74c0-0.51,0.07-1.5,0.22-2.97
		c-0.99,3.48-2.75,6.29-5.28,8.42c-2.53,2.13-5.01,3.19-7.45,3.19c-2.44,0-4.4-0.91-5.89-2.72c-1.48-1.81-2.23-4.39-2.23-7.73
		c0-3.34,0.6-6.57,1.79-9.71c1.19-3.13,2.98-5.79,5.36-7.98c2.38-2.18,5.04-3.27,7.97-3.27c1.69,0,3.41,0.4,5.17,1.21
		c-3.7,1.32-6.65,3.91-8.85,7.78C19.63,37,18.53,40.78,18.53,44.49z"/>
	<path class="st0" d="M59.92,26.47c1.85-2.25,3.58-3.38,5.17-3.38c1.6,0,2.8,0.6,3.6,1.79c0.81,1.19,1.21,2.73,1.21,4.62
		c0,1.89-0.56,3.62-1.68,5.2c-1.12,1.58-2.65,2.37-4.59,2.37c-0.51,0-1.12-0.15-1.81-0.44c1.14-1.43,1.71-3.15,1.71-5.17
		c0-1.17-0.48-1.76-1.43-1.76c-0.7,0-1.45,0.49-2.26,1.46c-0.81,0.97-1.58,2.31-2.31,4.02c-0.73,1.7-1.35,3.89-1.84,6.54
		s-0.74,5.49-0.74,8.5c0,0.37,0.09,1.92,0.28,4.67c-1.17,0.07-1.93,0.11-2.26,0.11c-2.09,0-3.59-0.37-4.51-1.1
		c-0.92-0.73-1.38-1.94-1.38-3.63c0-0.73,0.38-3.56,1.15-8.47c0.77-4.91,1.16-8.83,1.16-11.74c0-2.92-0.31-5.6-0.94-8.06
		c2.68,0.84,4.55,2.04,5.61,3.6c1.06,1.56,1.6,3.37,1.6,5.45c0,2.07-0.17,4.06-0.5,5.97C56.48,32.24,58.07,28.73,59.92,26.47z"/>
	<path class="st0" d="M78.81,43.77c0,4.36,1.32,6.54,3.96,6.54c1.39,0,2.75-0.75,4.07-2.25c1.32-1.5,2.39-3.52,3.22-6.05
		c0.82-2.53,1.54-5.23,2.15-8.11c0.6-2.88,1.05-5.93,1.35-9.16c0.51-6.23,0.77-11.1,0.77-14.6c0-3.5-0.15-6.13-0.44-7.89
		c2.64,0.59,4.49,1.83,5.56,3.74c1.06,1.91,1.59,4.31,1.59,7.21c0,2.9-0.61,8.29-1.84,16.17c-1.23,7.88-1.84,13.64-1.84,17.27
		s0.17,6.71,0.5,9.24c-2.6-0.7-4.39-1.95-5.36-3.77c-0.97-1.81-1.46-4.1-1.46-6.85c-1.14,3.15-2.84,5.65-5.12,7.48
		c-2.27,1.83-4.62,2.75-7.04,2.75c-2.42,0-4.39-0.93-5.91-2.78c-1.52-1.85-2.28-4.57-2.28-8.17c0-5.68,1.56-10.57,4.67-14.66
		c3.12-4.09,6.8-6.13,11.06-6.13c1.21,0,3.12,0.29,5.72,0.88c-2.27,0.59-4.3,1.6-6.08,3.05c-1.78,1.45-3.16,3.11-4.15,4.98
		C79.84,36.37,78.81,40.07,78.81,43.77z"/>
	<path class="st0" d="M118.58,41.35c-1.76,0-3.48-0.2-5.17-0.61c-0.04,0.37-0.06,0.93-0.06,1.71c0,3.04,0.57,5.33,1.71,6.88
		c1.14,1.54,2.49,2.31,4.07,2.31c1.58,0,3.08-0.48,4.51-1.43c1.43-0.95,2.68-2.27,3.74-3.96c1.32,0.29,1.98,0.97,1.98,2.04
		c-3.23,4.95-7.39,7.42-12.49,7.42c-3.08,0-5.77-1.18-8.08-3.55c-2.31-2.36-3.46-5.66-3.46-9.87c0-3.15,0.6-6.15,1.81-8.99
		s3.14-5.24,5.77-7.21c2.64-1.96,5.56-2.94,8.77-2.94c3.21,0,5.56,0.73,7.07,2.2c1.5,1.47,2.25,3.39,2.25,5.78
		c0,3.45-1.2,6.01-3.6,7.7C125,40.51,122.06,41.35,118.58,41.35z M120.89,26.56c-1.87,0-3.45,1.16-4.73,3.47
		c-1.28,2.31-2.13,5.11-2.53,8.42h0.82c3.19,0,5.55-0.83,7.07-2.48c1.52-1.65,2.28-3.63,2.28-5.94c0-0.95-0.25-1.77-0.74-2.45
		C122.56,26.9,121.84,26.56,120.89,26.56z"/>
	<path class="st0" d="M160.98,49.05c0,1.83,0.11,3.78,0.33,5.83c-1.17,0.07-1.94,0.11-2.31,0.11c-2.05,0-3.54-0.36-4.46-1.07
		c-0.92-0.72-1.38-1.77-1.38-3.16c0-1.39,0.39-4.26,1.18-8.61c0.79-4.34,1.18-7.64,1.18-9.9c0-2.26-0.73-3.38-2.2-3.38
		c-0.81,0-1.69,0.49-2.64,1.46c-0.95,0.97-1.85,2.29-2.7,3.96c-0.84,1.67-1.55,3.8-2.12,6.41c-0.57,2.6-0.85,5.11-0.85,7.51
		c0,2.4,0.11,4.63,0.33,6.68c-1.17,0.07-1.94,0.11-2.31,0.11c-2.05,0-3.54-0.36-4.46-1.07c-0.92-0.72-1.38-1.92-1.38-3.6
		c0-0.4,0.38-3.14,1.13-8.2c0.75-5.06,1.13-9.07,1.13-12.02c0-2.95-0.31-5.66-0.94-8.11c2.71,0.84,4.6,2.05,5.67,3.63
		c1.06,1.58,1.6,3.52,1.6,5.83c0,1.17-0.13,2.66-0.39,4.46c1.25-3.67,2.98-6.71,5.2-9.13c2.22-2.42,4.36-3.63,6.43-3.63
		c2.07,0,3.58,0.77,4.51,2.31c0.94,1.54,1.4,3.76,1.4,6.66c1.39-2.68,2.99-4.84,4.79-6.49c1.8-1.65,3.45-2.48,4.95-2.48
		c2.24,0,3.82,0.67,4.76,2.01c0.93,1.34,1.4,3.15,1.4,5.44c0,2.29-0.36,5.51-1.07,9.65c-0.72,4.14-1.07,7.16-1.07,9.05
		s0.24,3.26,0.72,4.12c0.48,0.86,1.28,1.6,2.42,2.23c-0.48,0.04-1.16,0.05-2.04,0.05c-3.08,0-5.27-0.48-6.57-1.43
		c-1.3-0.95-1.95-2.62-1.95-5c0-1.36,0.37-4.01,1.1-7.95c0.73-3.94,1.1-6.88,1.1-8.83c0-2.42-0.73-3.63-2.2-3.63
		c-1.1,0-2.28,0.8-3.55,2.39c-1.27,1.59-2.38,4-3.33,7.21C161.46,41.67,160.98,45.2,160.98,49.05z"/>
	<path class="st0" d="M196.62,35.91c-0.59,3.26-1.04,6.16-1.38,8.69c-0.33,2.53-0.5,5.12-0.5,7.76c0,2.64,0.26,4.53,0.77,5.66
		c-2.82-0.73-4.77-1.86-5.83-3.38c-1.06-1.52-1.59-3.68-1.59-6.46c0-2.46,0.38-5.82,1.15-10.09c0.77-4.27,1.27-7.16,1.49-8.66
		c-1.91,0.33-3.94,0.97-6.1,1.92c-0.07-0.81-0.11-1.41-0.11-1.81c0-1.94,0.59-3.27,1.76-3.99c1.17-0.72,2.86-1.09,5.06-1.13
		c0.26-2.75,0.38-4.73,0.38-5.94s-0.01-2.22-0.03-3.02c-0.02-0.81-0.03-1.41-0.03-1.81c2.42,0.26,4.18,0.98,5.28,2.17
		c1.1,1.19,1.65,2.89,1.65,5.09c0,0.88-0.09,2.11-0.28,3.69c3.08-0.07,5.33-0.68,6.77-1.81c0.07,0.73,0.11,1.28,0.11,1.65
		c0,1.76-0.31,2.98-0.93,3.66c-0.62,0.68-1.67,1.02-3.13,1.02c-1.47,0-2.58-0.02-3.36-0.06C197.59,30.35,197.21,32.64,196.62,35.91z
		"/>
	<path class="st0" d="M208.61,45.86c0-1.54,0.29-4.33,0.88-8.36c0.59-4.03,0.88-7.17,0.88-9.41c0-2.24-0.11-3.96-0.33-5.17
		c0.81-0.07,1.56-0.11,2.25-0.11c2.13,0,3.6,0.36,4.43,1.07c0.83,0.72,1.24,1.93,1.24,3.66c0,0.55-0.45,3.44-1.35,8.66
		c-0.9,5.22-1.36,9.53-1.38,12.92s0.19,5.58,0.63,6.57c-2.86-0.73-4.79-1.84-5.78-3.33C209.1,50.89,208.61,48.72,208.61,45.86z
		 M216.09,18.2c-3.78,0-5.67-1.32-5.67-3.96c0-0.95,0.28-2.25,0.83-3.9c1.03-0.15,1.92-0.22,2.7-0.22c3.78,0,5.67,1.32,5.67,3.96
		c0,0.95-0.28,2.25-0.83,3.91C217.76,18.12,216.86,18.2,216.09,18.2z"/>
</g>
</svg>
