<?xml version="1.0" encoding="utf-8"?>
<!-- Generator: Adobe Illustrator 23.0.1, SVG Export Plug-In . SVG Version: 6.00 Build 0)  -->
<svg version="1.1" id="Capa_1" xmlns="http://www.w3.org/2000/svg" xmlns:xlink="http://www.w3.org/1999/xlink" x="0px" y="0px"
	 viewBox="0 0 519.4 250" style="enable-background:new 0 0 519.4 250;" xml:space="preserve">
<style type="text/css">
	.st0{fill:#FFFFFF;}
	.st1{fill:none;stroke:#000000;stroke-miterlimit:10;}
</style>
<g>
	<path class="st0" d="M40.8,152.8c12.8,0.9,24.7-39.1,33.8-39.1c6.3,0,4.7,9.7,4.7,13.5c0,7.8-1.6,35.7,1.9,43.8
		c6.9-5.3,14.7-30,16.3-37.6c0-6.6,10-6.6,10-0.3c-1.6,12.2-11.3,41.3-22.8,47.3c-15.6,8.1-16.6-22.8-15.6-43.5
		c-8.1,13.1-18.8,28.8-31,25.3c-31-6.3-9.7-62,35.1-65.7c6.6,0,6.6,10,0,10C37.3,109.9,23.2,151.9,40.8,152.8z"/>
	<path class="st0" d="M110.6,116.2c-10-10-5.6-24.4,5.6-28.5c12.5-3.4,14.4,11.9,8.4,25.7c8.8,3.4,29.1-0.3,25.7,13.1
		c-1.9,7.8-7.2,54.8-7.2,68.2c8.5-11.9,28.8-49.4,29.7-64.5c0-6.6,10-6.6,10,0c-1.3,16-32.2,91.4-47.9,74.5
		c-6.3-6.3,1.6-65.7,5.3-78.9c-7.8-1.3-13.5-0.6-21.3-4.1c-2.5,2.5-9.7,12.5-13.1,14.1c-2.5,0.9-5-0.9-5.9-3.8
		c-0.9-2.5,0.6-5,3.4-5.9C103.7,126.2,109.9,116.8,110.6,116.2z M118.4,97.7c-2.8,1.3-4.7,5.6-2.2,9.7
		C117.8,103.7,119.3,99.9,118.4,97.7z"/>
	<path class="st0" d="M216,105.2c1.6-11.6,5.3-53.8,16.6-55.4c28.2-5-5,85.1-10,98c0,6.6-0.6,31.9,4.1,36.6
		c6.6,3.8,18.8-49.8,21-54.5c2.5-5.9,11.3-1.3,8.8,4.4c-3.4,12.5-13.8,66.7-33.5,59.1c-7.2-2.8-9.4-16.6-10.3-34.1
		C153.1,212.3,162.5,71.8,216,105.2z M212.9,145c0.3-9.7,0.9-19.1,2.2-28.2C178.5,80.2,164.4,203.5,212.9,145z M234.2,62.7
		c-3.4,7.5-6.3,31-7.2,39.7C231.7,86.5,235.1,70.2,234.2,62.7z"/>
	<path class="st0" d="M277.7,127.2c-8.4-9.7-18.5-4.1-21.3,8.4c-10,44.1,37.6,23.5,46.6-4.7c1.9-6.9,10.6-4.1,9.7,1.9
		c-11.3,38.8-67.6,55.7-67.6,12.5c0-41.9,39.1-38.5,44.1-16.9c3.4,16.3-15.6,18.8-26.9,18.8c-6.6,0-6.6-10,0-10
		C266.4,137.2,286.1,136.2,277.7,127.2z"/>
	<path class="st0" d="M314,131.5c5-19.1,12.5-41.3,21.6-41.3c9.7,0,12.2,17.5,13.8,38.2c5-19.4,11.9-34.7,22.5-25
		c10.6,10,6.6,53.2,12.5,68.2c7.5-8.5,14.7-29.4,16.3-39.4c0-6.6,10-6.6,10,0c-1.6,11.9-12.5,45.1-23.8,50.1
		c-21,8.5-13.5-59.1-21.3-71c-4.1,6.6-8.5,28.2-9.4,34.1c-1.6,6.3-4.1,34.1-4.7,36.3c-1.9,5.3-9.4,5.3-10.3-2.5
		c-2.5-16.6,0.6-61.7-5.9-77.3c-6.6,9.1-14.4,42.6-16,50.4c-0.9,3.8-1.9,15.6-9.1,12.5c-7.5-3.4-6.6-41.9-6.6-50.4
		c0-6.6,10-6.6,10,0C313.7,118.1,313.7,124.3,314,131.5z"/>
	<path class="st0" d="M414.7,71.1c4.1,0,8.1,0.3,11.9,0.3c6.6,0,6.6,10,0,10c-4.1-0.3-8.1-0.3-12.8-0.3c-2.5,31.9-3.8,93.6,5,99.2
		c5,3.4,19.4-17.8,20-18.8c5.3-9.7,8.1-18.2,9.1-29.1c0-6.6,10-6.6,10,0c-0.9,14.1-19.7,65.4-42.6,59.5
		c-16.6-4.1-15.3-74.5-11.9-110.8c-9.1,0-41.6-0.3-49.4,0.6c-6.3,1.6-9.7-7.8-3.1-9.4c8.5-0.9,42.6-1.3,53.5-1.3
		c0.9-9.7,2.2-17.2,3.1-21.3c1.9-6.3,11.3-3.1,9.4,3.1C416,56.4,415.7,62.7,414.7,71.1z"/>
	<path class="st0" d="M459.8,165.6c7.5-0.9,23.5-30,26-35.1c2.5-5.6,11.9-2.2,9.4,3.8c-5.6,11.6-17.8,35.4-31.3,40.4
		c-22.8,8.8-16-42.9-14.7-52.9c0.9-6.3,10.6-4.7,9.7,1.3C457.9,129.7,454.8,160.6,459.8,165.6z M457,95.5c6.9,2.5,2.8,14.4-2.5,14.4
		C446,109.9,449.5,94,457,95.5z"/>
</g>
</svg>
