<?xml version="1.0" encoding="utf-8"?>
<!-- Generator: Adobe Illustrator 26.4.1, SVG Export Plug-In . SVG Version: 6.00 Build 0)  -->
<svg version="1.1" id="Capa_1" xmlns="http://www.w3.org/2000/svg" xmlns:xlink="http://www.w3.org/1999/xlink" x="0px" y="0px"
	 viewBox="0 0 230 60" style="enable-background:new 0 0 230 60;" xml:space="preserve">
<style type="text/css">
	.st0{fill:#0F172A;}
	.st1{enable-background:new    ;}
	.st2{fill:#D97706;}
</style>
<g>
	<path class="st0" d="M39.2,37.3v19.4l-8.6-4.3c-2.7,1.6-5.7,2.4-8.9,2.4c-4.8,0-9-1.7-12.4-5.1s-5.1-7.5-5.1-12.4s1.7-9,5.1-12.4
		s7.6-5.1,12.4-5.1s9,1.7,12.4,5.1C37.4,28.4,39.2,32.5,39.2,37.3z M28.5,30.5c-1.9-1.9-4.2-2.9-6.9-2.9s-5,1-6.9,2.9
		c-1.9,1.9-2.8,4.2-2.8,6.9s0.9,5,2.8,6.9c1.9,1.9,4.2,2.8,6.9,2.8s5-1,6.9-2.8c1.9-1.9,2.8-4.2,2.8-6.9S30.4,32.4,28.5,30.5z"/>
	<path class="st0" d="M44.9,37.3c0-4.8,1.7-9,5.1-12.4s7.5-5.1,12.4-5.1v7.8c-2.7,0-5,1-6.9,2.9s-2.8,4.2-2.8,6.9v17.5l-7.8,3.9
		L44.9,37.3L44.9,37.3z"/>
	<path class="st0" d="M99.7,37.3c0,4.8-1.7,9-5.1,12.4s-7.5,5.1-12.3,5.1s-9-1.7-12.4-5.1s-5.1-7.5-5.1-12.4s1.7-9,5.1-12.4
		s7.6-5.1,12.4-5.1c3.5,0,6.8,1,9.7,3V14l7.7-3.9V37.3z M82.2,47c2.7,0,5-1,6.9-2.8c1.9-1.9,2.8-4.2,2.8-6.9s-0.9-5-2.8-6.9
		c-1.9-1.9-4.2-2.9-6.9-2.9c-2.7,0-5,1-6.9,2.9c-1.9,1.9-2.8,4.2-2.8,6.9s0.9,5,2.8,6.9C77.2,46.1,79.5,47,82.2,47z"/>
	<path class="st0" d="M108.1,24.9c3.4-3.4,7.6-5.1,12.4-5.1c4.8,0,9,1.7,12.4,5.1s5.1,7.5,5.1,12.4c0,0.8-0.1,1.6-0.2,2.4h-26.8
		c0.5,2.1,1.7,3.9,3.4,5.3c1.8,1.4,3.8,2.1,6,2.1c2.3,0,4.4-0.8,6.3-2.3h9.5c-1.4,3-3.6,5.5-6.4,7.3c-2.8,1.8-6,2.8-9.4,2.8
		c-4.8,0-9-1.7-12.4-5.1c-3.4-3.4-5.1-7.5-5.1-12.4C103,32.5,104.7,28.4,108.1,24.9z M111.4,33.9h18.2c-0.7-1.9-1.9-3.4-3.5-4.6
		c-1.7-1.2-3.5-1.8-5.5-1.8s-3.9,0.6-5.6,1.8C113.3,30.5,112.1,32,111.4,33.9z"/>
	<path class="st0" d="M163.2,23.3c2.4-2.3,5.3-3.5,8.7-3.5c3.5,0,6.5,1.2,9,3.7s3.7,5.4,3.7,8.9v22.4h-7.8V32.4
		c0-1.4-0.5-2.5-1.4-3.5c-0.9-1-2.1-1.4-3.5-1.4c-1.3,0-2.4,0.5-3.4,1.4s-1.4,2.1-1.4,3.5v22.4h-7.8V32.4c0-1.4-0.5-2.5-1.4-3.5
		c-0.9-1-2.1-1.4-3.5-1.4c-1.3,0-2.4,0.5-3.4,1.4s-1.4,2.1-1.4,3.5v22.3l-7.8,3.9V32.4c0-3.5,1.2-6.5,3.7-8.9
		c2.5-2.5,5.4-3.7,8.9-3.7C157.9,19.8,160.8,21,163.2,23.3z"/>
	<path class="st0" d="M199.9,14v5.4h3.5v5.8h-3.5v17.9c0,1.1,0.4,2,1.1,2.8c0.8,0.8,1.7,1.1,2.7,1.1h1.9v7.8h-1.9
		c-3.2,0-6-1.1-8.3-3.4s-3.4-5-3.4-8.3V25.2h-3.5v-5.8h3.5v-9.3L199.9,14z"/>
	<path class="st0" d="M210.6,23.7l7.8-3.9v35h-7.8V23.7z"/>
</g>
<g class="st1">
	<path class="st2" d="M218.4,16.8l-7.9,3.9l0-4.4c-1.2-0.8-2.1-1.8-2.8-3.1c-1-2-1.1-4-0.4-6.1c0.7-2.1,2-3.6,4-4.6
		c2-1,4-1.1,6.1-0.4c2.1,0.7,3.6,2,4.6,4c1,2,1.1,4,0.4,6.1C221.7,14.3,220.3,15.9,218.4,16.8z M219,11.1c0.4-1.2,0.3-2.3-0.2-3.4
		c-0.6-1.1-1.4-1.8-2.6-2.2c-1.2-0.4-2.3-0.3-3.4,0.2c-1.1,0.5-1.8,1.4-2.2,2.5c-0.4,1.2-0.3,2.3,0.2,3.4c0.6,1.1,1.4,1.8,2.6,2.2
		c1.2,0.4,2.3,0.3,3.4-0.2C217.9,13.1,218.6,12.3,219,11.1z"/>
</g>
</svg>
