<?xml version="1.0" encoding="utf-8"?>
<!-- Generator: Adobe Illustrator 26.4.1, SVG Export Plug-In . SVG Version: 6.00 Build 0)  -->
<svg version="1.1" id="Capa_1" xmlns="http://www.w3.org/2000/svg" xmlns:xlink="http://www.w3.org/1999/xlink" x="0px" y="0px"
	 viewBox="0 0 230 60" style="enable-background:new 0 0 230 60;" xml:space="preserve">
<style type="text/css">
	.st0{fill:#F6F6F6;}
	.st1{fill:#D97706;}
</style>
<g>
	<path class="st0" d="M39.15,37.32v19.43l-8.62-4.34c-2.71,1.61-5.67,2.41-8.89,2.41c-4.83,0-8.96-1.71-12.38-5.13
		c-3.42-3.42-5.13-7.55-5.13-12.38c0-4.83,1.71-8.96,5.13-12.38c3.42-3.42,7.55-5.13,12.38-5.13c4.83,0,8.96,1.71,12.38,5.13
		C37.44,28.37,39.15,32.49,39.15,37.32z M28.53,30.46c-1.89-1.9-4.18-2.85-6.89-2.85c-2.71,0-5,0.95-6.89,2.85
		c-1.89,1.9-2.83,4.19-2.83,6.86s0.94,4.96,2.83,6.86c1.88,1.9,4.18,2.85,6.89,2.85c2.71,0,5-0.95,6.89-2.85
		c1.88-1.9,2.83-4.19,2.83-6.86S30.42,32.36,28.53,30.46z"/>
	<path class="st0" d="M44.86,37.32c0-4.83,1.71-8.96,5.13-12.38c3.42-3.42,7.55-5.13,12.38-5.13v7.79c-2.67,0-4.96,0.95-6.86,2.85
		c-1.9,1.9-2.85,4.19-2.85,6.86v17.51l-7.79,3.9V37.32z"/>
	<path class="st0" d="M99.69,37.32c0,4.83-1.7,8.96-5.1,12.38c-3.4,3.42-7.52,5.13-12.35,5.13s-8.96-1.71-12.38-5.13
		c-3.42-3.42-5.13-7.55-5.13-12.38c0-4.83,1.71-8.96,5.13-12.38c3.42-3.42,7.55-5.13,12.38-5.13c3.51,0,6.75,0.99,9.71,2.96v-8.78
		l7.74-3.9V37.32z M82.24,47.04c2.67,0,4.96-0.95,6.86-2.85c1.9-1.9,2.85-4.19,2.85-6.86S91,32.36,89.1,30.46
		c-1.9-1.9-4.19-2.85-6.86-2.85c-2.71,0-5.01,0.95-6.92,2.85c-1.9,1.9-2.85,4.19-2.85,6.86s0.95,4.96,2.85,6.86
		C77.23,46.09,79.53,47.04,82.24,47.04z"/>
	<path class="st0" d="M108.12,24.94c3.42-3.42,7.55-5.13,12.38-5.13c4.83,0,8.96,1.71,12.38,5.13c3.42,3.42,5.13,7.55,5.13,12.38
		c0,0.8-0.05,1.59-0.17,2.36h-26.78c0.51,2.12,1.65,3.88,3.4,5.27c1.76,1.39,3.77,2.09,6.04,2.09c2.34,0,4.43-0.77,6.26-2.31h9.55
		c-1.43,3.04-3.56,5.48-6.39,7.33c-2.84,1.85-5.97,2.77-9.41,2.77c-4.83,0-8.96-1.71-12.38-5.13c-3.42-3.42-5.13-7.55-5.13-12.38
		C102.99,32.49,104.7,28.37,108.12,24.94z M111.39,33.86h18.17c-0.7-1.87-1.87-3.38-3.51-4.56c-1.65-1.17-3.49-1.76-5.54-1.76
		s-3.91,0.59-5.57,1.76C113.26,30.48,112.08,32,111.39,33.86z"/>
	<path class="st0" d="M163.25,23.33c2.42-2.34,5.32-3.51,8.73-3.51c3.51,0,6.5,1.23,8.97,3.7c2.47,2.47,3.71,5.44,3.71,8.92v22.39
		h-7.79V32.44c0-1.35-0.48-2.51-1.43-3.46c-0.95-0.95-2.1-1.43-3.46-1.43c-1.32,0-2.45,0.48-3.4,1.43c-0.95,0.95-1.43,2.1-1.43,3.46
		v22.39h-7.79V32.44c0-1.35-0.48-2.51-1.43-3.46c-0.95-0.95-2.1-1.43-3.46-1.43c-1.32,0-2.45,0.48-3.4,1.43
		c-0.95,0.95-1.43,2.1-1.43,3.46v22.34l-7.79,3.9V32.44c0-3.48,1.24-6.45,3.7-8.92c2.47-2.47,5.44-3.7,8.92-3.7
		C157.91,19.81,160.84,20.98,163.25,23.33z"/>
	<path class="st0" d="M199.92,13.99v5.43h3.51v5.82h-3.51v17.89c0,1.1,0.38,2.02,1.15,2.77c0.77,0.75,1.68,1.12,2.74,1.12h1.92v7.79
		h-1.92c-3.22,0-5.97-1.14-8.26-3.43c-2.29-2.29-3.43-5.04-3.43-8.26V25.25h-3.51v-5.82h3.51V10.1L199.92,13.99z"/>
	<path class="st0" d="M210.57,23.71l7.79-3.9v35.02h-7.79V23.71z"/>
</g>
<g>
	<path class="st1" d="M218.33,16.84l-7.9,3.95l0.01-4.39c-1.21-0.77-2.14-1.81-2.79-3.12c-0.98-1.96-1.13-3.99-0.43-6.08
		c0.7-2.09,2.03-3.62,3.99-4.6s3.99-1.12,6.08-0.43c2.09,0.7,3.62,2.03,4.6,3.99c0.98,1.96,1.12,3.99,0.43,6.08
		C221.63,14.32,220.3,15.85,218.33,16.84z M218.96,11.12c0.39-1.15,0.31-2.28-0.24-3.38c-0.55-1.1-1.4-1.84-2.56-2.22
		c-1.16-0.38-2.28-0.3-3.37,0.25s-1.82,1.39-2.21,2.54c-0.39,1.15-0.31,2.28,0.24,3.38c0.55,1.1,1.4,1.84,2.56,2.22
		c1.16,0.38,2.28,0.3,3.36-0.25S218.57,12.28,218.96,11.12z"/>
</g>
</svg>
